<svg width="1024" height="1024" xmlns="http://www.w3.org/2000/svg" class="icon">
 <defs>
  <style type="text/css"/>
 </defs>
 <g>
  <title>background</title>
  <rect fill="none" id="canvas_background" height="402" width="582" y="-1" x="-1"/>
 </g>
 <g>
  <title>Layer 1</title>
  <g stroke="null" id="svg_3">
   <path stroke="null" stroke-width="0" id="svg_1" fill="#369EEE" d="m161.62348,3.41568l700.752999,0c87.304214,0 158.20783,70.903617 158.20783,158.207831l0,700.753006c0,87.304215 -70.903616,158.207831 -158.20783,158.207831l-700.752999,0c-87.304227,0 -158.20783,-70.903617 -158.20783,-158.207831l0,-700.753006c0,-87.304215 70.903616,-158.207831 158.20783,-158.207831z"/>
   <path stroke="null" stroke-width="0" id="svg_2" fill="#FFFFFF" d="m377.437124,744.822251l0,-210.391562l72.725902,0c16.234939,0 27.831328,0.828307 34.954825,2.319275c9.77409,2.319275 19.216862,6.626508 28.659635,12.590354c9.442772,5.96386 20.045183,16.56627 31.80723,31.641572c11.927706,15.075302 27.003008,36.777111 45.225905,65.271088l62.620481,98.569273l78.85542,0l-82.334347,-128.885535c-16.400598,-25.180722 -33.795174,-46.219884 -52.018071,-62.951813c-8.614452,-7.786146 -21.20482,-15.572291 -37.771076,-23.524095c45.391563,-6.295177 79.021079,-20.873489 100.888547,-43.900609c21.70181,-23.027106 32.63555,-51.35541 32.63555,-84.98494c0,-26.009029 -6.626508,-49.864455 -19.713865,-71.400593s-30.647579,-36.611453 -52.680719,-45.060246c-22.033127,-8.448794 -54.006029,-12.756027 -96.249997,-12.756027l-210.225901,0l0,473.463857l62.620481,0zm0,-421.445785l149.924695,0c35.120484,0 60.798196,7.289156 77.033135,21.70181c16.234939,14.412654 24.352402,32.801209 24.352402,55.331326c0,15.24096 -4.141561,29.487955 -12.590354,42.40964c-8.448794,13.087344 -20.707831,22.530116 -36.777111,28.493976c-16.234939,5.96386 -38.599397,8.945783 -67.259031,8.945783l-134.683735,0l0,-156.882535z"/>
  </g>
 </g>
</svg>