<?xml version="1.0" standalone="no"?>
<!DOCTYPE svg PUBLIC "-//W3C//DTD SVG 20010904//EN"
 "http://www.w3.org/TR/2001/REC-SVG-20010904/DTD/svg10.dtd">
<svg version="1.0" xmlns="http://www.w3.org/2000/svg"
 width="700.000000pt" height="700.000000pt" viewBox="0 0 700.000000 700.000000"
 preserveAspectRatio="xMidYMid meet">
<metadata>
Created by potrace 1.11, written by Peter Selinger 2001-2013
</metadata>
<g transform="translate(0.000000,700.000000) scale(0.100000,-0.100000)"
fill="#000000" stroke="none">
<path d="M995 6969 c-432 -41 -807 -356 -929 -780 -14 -48 -29 -138 -35 -200
-15 -158 -15 -4820 0 -4978 25 -264 134 -496 321 -677 183 -179 402 -279 659
-303 158 -15 4820 -15 4978 0 264 25 496 134 677 321 179 183 279 402 303 659
15 158 15 4820 0 4978 -24 257 -124 476 -303 659 -181 187 -413 296 -677 321
-139 13 -4857 13 -4994 0z m2724 -1829 c312 -15 501 -55 639 -137 80 -47 196
-168 251 -261 155 -261 174 -609 46 -864 -135 -269 -367 -413 -795 -495 -21
-4 -10 -12 70 -56 140 -77 301 -238 449 -445 51 -72 621 -960 621 -968 0 -2
-120 -4 -267 -4 l-268 0 -185 292 c-508 802 -647 984 -820 1070 -130 65 -157
69 -537 75 l-343 6 0 -722 0 -721 -215 0 -215 0 0 1613 c0 888 3 1617 7 1620
10 11 1331 8 1562 -3z"/>
<path d="M2580 4254 l0 -535 593 4 c563 4 596 5 682 25 265 64 416 228 440
477 8 86 -13 195 -52 275 -38 76 -133 168 -213 207 -152 74 -244 82 -917 83
l-533 0 0 -536z"/>
</g>
</svg>
