<svg width="243pt" height="260pt" viewBox="0.00 0.00 242.84 260.00" xmlns="http://www.w3.org/2000/svg" xmlns:xlink="http://www.w3.org/1999/xlink">
<g id="graph0" class="graph" transform="scale(1 1) rotate(0) translate(4 256)">
<title>G</title>
<polygon fill="white" stroke="none" points="-4,4 -4,-256 238.84,-256 238.84,4 -4,4"></polygon>
<!-- dbghhbq1x39yxgkv3vkgfwbxrmw9nfzi&#45;hello&#45;2.12.1 -->
<g id="node1" class="node">
<title>dbghhbq1x39yxgkv3vkgfwbxrmw9nfzi-hello-2.12.1</title>
<polygon fill="#ff0000" stroke="black" points="163.31,-36 79.65,-36 79.65,0 163.31,0 163.31,-36"></polygon>
<text text-anchor="middle" x="121.48" y="-13.8" font-family="Times,serif" font-size="14.00">hello-2.12.1</text>
</g>
<!-- ddwyrxif62r8n6xclvskjyy6szdhvj60&#45;glibc&#45;2.39&#45;5 -->
<g id="node2" class="node">
<title>ddwyrxif62r8n6xclvskjyy6szdhvj60-glibc-2.39-5</title>
<polygon fill="#ff0000" stroke="black" points="163.89,-108 79.07,-108 79.07,-72 163.89,-72 163.89,-108"></polygon>
<text text-anchor="middle" x="121.48" y="-85.8" font-family="Times,serif" font-size="14.00">glibc-2.39-5</text>
</g>
<!-- ddwyrxif62r8n6xclvskjyy6szdhvj60&#45;glibc&#45;2.39&#45;5&#45;&gt;dbghhbq1x39yxgkv3vkgfwbxrmw9nfzi&#45;hello&#45;2.12.1 -->
<g id="edge1" class="edge">
<title>ddwyrxif62r8n6xclvskjyy6szdhvj60-glibc-2.39-5-&gt;dbghhbq1x39yxgkv3vkgfwbxrmw9nfzi-hello-2.12.1</title>
<path fill="none" stroke="black" d="M121.48,-71.7C121.48,-64.41 121.48,-55.73 121.48,-47.54"></path>
<polygon fill="black" stroke="black" points="124.98,-47.62 121.48,-37.62 117.98,-47.62 124.98,-47.62"></polygon>
</g>
<!-- rxganm4ibf31qngal3j3psp20mak37yy&#45;xgcc&#45;13.2.0&#45;libgcc -->
<g id="node3" class="node">
<title>rxganm4ibf31qngal3j3psp20mak37yy-xgcc-13.2.0-libgcc</title>
<polygon fill="#ff0000" stroke="black" points="120.96,-180 0,-180 0,-144 120.96,-144 120.96,-180"></polygon>
<text text-anchor="middle" x="60.48" y="-157.8" font-family="Times,serif" font-size="14.00">xgcc-13.2.0-libgcc</text>
</g>
<!-- rxganm4ibf31qngal3j3psp20mak37yy&#45;xgcc&#45;13.2.0&#45;libgcc&#45;&gt;ddwyrxif62r8n6xclvskjyy6szdhvj60&#45;glibc&#45;2.39&#45;5 -->
<g id="edge2" class="edge">
<title>rxganm4ibf31qngal3j3psp20mak37yy-xgcc-13.2.0-libgcc-&gt;ddwyrxif62r8n6xclvskjyy6szdhvj60-glibc-2.39-5</title>
<path fill="none" stroke="red" d="M75.56,-143.7C82.65,-135.56 91.25,-125.69 99.08,-116.7"></path>
<polygon fill="red" stroke="red" points="101.65,-119.08 105.58,-109.25 96.37,-114.49 101.65,-119.08"></polygon>
</g>
<!-- s32cldbh9pfzd9z82izi12mdlrw0yf8q&#45;libidn2&#45;2.3.7 -->
<g id="node4" class="node">
<title>s32cldbh9pfzd9z82izi12mdlrw0yf8q-libidn2-2.3.7</title>
<polygon fill="#ff0000" stroke="black" points="227.65,-180 139.31,-180 139.31,-144 227.65,-144 227.65,-180"></polygon>
<text text-anchor="middle" x="183.48" y="-157.8" font-family="Times,serif" font-size="14.00">libidn2-2.3.7</text>
</g>
<!-- s32cldbh9pfzd9z82izi12mdlrw0yf8q&#45;libidn2&#45;2.3.7&#45;&gt;ddwyrxif62r8n6xclvskjyy6szdhvj60&#45;glibc&#45;2.39&#45;5 -->
<g id="edge3" class="edge">
<title>s32cldbh9pfzd9z82izi12mdlrw0yf8q-libidn2-2.3.7-&gt;ddwyrxif62r8n6xclvskjyy6szdhvj60-glibc-2.39-5</title>
<path fill="none" stroke="green" d="M168.15,-143.7C160.95,-135.56 152.2,-125.69 144.24,-116.7"></path>
<polygon fill="green" stroke="green" points="146.88,-114.4 137.63,-109.24 141.64,-119.04 146.88,-114.4"></polygon>
</g>
<!-- 7n0mbqydcipkpbxm24fab066lxk68aqk&#45;libunistring&#45;1.1 -->
<g id="node5" class="node">
<title>7n0mbqydcipkpbxm24fab066lxk68aqk-libunistring-1.1</title>
<polygon fill="#ff0000" stroke="black" points="234.84,-252 132.12,-252 132.12,-216 234.84,-216 234.84,-252"></polygon>
<text text-anchor="middle" x="183.48" y="-229.8" font-family="Times,serif" font-size="14.00">libunistring-1.1</text>
</g>
<!-- 7n0mbqydcipkpbxm24fab066lxk68aqk&#45;libunistring&#45;1.1&#45;&gt;s32cldbh9pfzd9z82izi12mdlrw0yf8q&#45;libidn2&#45;2.3.7 -->
<g id="edge4" class="edge">
<title>7n0mbqydcipkpbxm24fab066lxk68aqk-libunistring-1.1-&gt;s32cldbh9pfzd9z82izi12mdlrw0yf8q-libidn2-2.3.7</title>
<path fill="none" stroke="blue" d="M183.48,-215.7C183.48,-208.41 183.48,-199.73 183.48,-191.54"></path>
<polygon fill="blue" stroke="blue" points="186.98,-191.62 183.48,-181.62 179.98,-191.62 186.98,-191.62"></polygon>
</g>
</g>
</svg>